# xmcd
#
# Track frame offsets:
#	150
#	9295
#	29213
#	48547
#	67810
#	83411
#	102473
#	119957
#	134273
#	148576
#
# Disc length: 2180 seconds
#
# Revision: 1
# Processed by: cddbd v1.5.2PL0 Copyright (c) Steve Scherf et al.
# Submitted via: audiograbber 1.81.03
#
DISCID=8b08820a
DTITLE=Tami J`Wilde - One Long Song
DYEAR=2007
DGENRE=Blues
TTITLE0=Sumthin Good
TTITLE1=I Gotta Know Why
TTITLE2=One Long Song
TTITLE3=Brand New Day
TTITLE4=Ride That Train
TTITLE5=Imagination
TTITLE6=Superstar
TTITLE7=Quench My Thirst
TTITLE8=River Runs
TTITLE9=What Were Ya Thinking
EXTD=
EXTT0=
EXTT1=
EXTT2=
EXTT3=
EXTT4=
EXTT5=
EXTT6=
EXTT7=
EXTT8=
EXTT9=
PLAYORDER=
